<svg width="32" height="32" viewBox="0 0 32 32" fill="none" xmlns="http://www.w3.org/2000/svg">
<g clip-path="url(#clip0_2003_185)">
<circle cx="16" cy="16" r="16" fill="white"/>
<path d="M22.7917 12.25H21.9375L20.1667 7.375C20.0201 6.97302 19.7537 6.62568 19.4035 6.37981C19.0534 6.13394 18.6362 6.00138 18.2083 6H16.5417C15.9687 6 15.5 6.46875 15.5 7.04167C15.5 7.61458 15.9687 8.08333 16.5417 8.08333H18.2083L19.7292 12.25H14.7187L14.3437 11.2083H14.4375C15.0104 11.2083 15.4792 10.7396 15.4792 10.1667C15.4792 9.59375 15.0104 9.125 14.4375 9.125H11.3333C10.7604 9.125 10.2917 9.59375 10.2917 10.1667C10.2917 10.7396 10.7604 11.2083 11.3333 11.2083H12.1146L14.0104 16.4167H13.3125C12.8542 14.0937 10.9062 12.375 8.46875 12.2604C5.55208 12.1146 3 14.5417 3 17.4583C3 20.375 5.29167 22.6667 8.20833 22.6667C10.7708 22.6667 12.8437 20.9062 13.3125 18.5H17.6875C18.1458 20.8229 20.0937 22.5417 22.5312 22.6562C25.4479 22.7917 28 20.375 28 17.4479C28 14.5417 25.7083 12.25 22.7917 12.25ZM9.25 18.5H11.1458C10.7083 19.7812 9.47917 20.6667 8 20.5729C6.44792 20.4792 5.15625 19.1667 5.08333 17.6042C5.01042 15.7812 6.40625 14.3333 8.20833 14.3333C9.59375 14.3333 10.7292 15.1979 11.1458 16.4167H9.25C8.67708 16.4167 8.20833 16.8854 8.20833 17.4583C8.20833 18.0312 8.67708 18.5 9.25 18.5ZM17.6875 16.4167H16.2292L15.4687 14.3333H18.625C18.1667 14.9375 17.8333 15.6354 17.6875 16.4167ZM22.6667 20.5833C21.0625 20.5208 19.7083 19.1562 19.6667 17.5417C19.6458 16.5417 20.0729 15.6667 20.7604 15.0833L21.4062 16.8542C21.6042 17.3958 22.1979 17.6771 22.7396 17.4792C23.2813 17.2813 23.5625 16.6875 23.3646 16.1458L22.7083 14.3437L22.7187 14.3333C23.1364 14.3191 23.5526 14.3896 23.9422 14.5407C24.3318 14.6918 24.6868 14.9202 24.9857 15.2123C25.2845 15.5044 25.5211 15.854 25.6811 16.24C25.8411 16.626 25.9213 17.0405 25.9167 17.4583C25.9167 19.25 24.4792 20.6458 22.6667 20.5833Z" fill="url(#paint0_linear_2003_185)"/>
</g>
<defs>
<linearGradient id="paint0_linear_2003_185" x1="15.5" y1="6" x2="15.5" y2="22.6667" gradientUnits="userSpaceOnUse">
<stop stop-color="#FFB60D"/>
<stop offset="1" stop-color="#E59317"/>
</linearGradient>
<clipPath id="clip0_2003_185">
<rect width="32" height="32" fill="white"/>
</clipPath>
</defs>
</svg>
