<svg xmlns="http://www.w3.org/2000/svg" width="53" height="53" fill="none"><path fill="#E6A40B" d="M48.058 14.01a2 2 0 1 1 4-.02 2 2 0 0 1-4 .02ZM48 2.01a2 2 0 1 1 4-.02 2 2 0 0 1-4 .02ZM36.174 38.068a2 2 0 1 1 4-.02 2 2 0 0 1-4 .02ZM36.116 26.068a2 2 0 1 1 4-.02 2 2 0 0 1-4 .02ZM36.058 14.068a2 2 0 1 1 4-.02 2 2 0 0 1-4 .02ZM36 2.068a2 2 0 1 1 4-.02 2 2 0 0 1-4 .02ZM24.174 38.126a2 2 0 1 1 4-.02 2 2 0 0 1-4 .02ZM24.116 26.126a2 2 0 1 1 4-.02 2 2 0 0 1-4 .02ZM24.058 14.126a2 2 0 1 1 4-.02 2 2 0 0 1-4 .02ZM24 2.126a2 2 0 1 1 4-.019 2 2 0 0 1-4 .02ZM12.233 50.184a2 2 0 1 1 4-.02 2 2 0 0 1-4 .02ZM12.175 38.184a2 2 0 1 1 4-.02 2 2 0 0 1-4 .02ZM12.116 26.184a2 2 0 1 1 4-.02 2 2 0 0 1-4 .02ZM12.058 14.184a2 2 0 1 1 4-.019 2 2 0 0 1-4 .02ZM12 2.185a2 2 0 1 1 4-.02 2 2 0 0 1-4 .02ZM.233 50.242a2 2 0 1 1 4-.02 2 2 0 0 1-4 .02ZM.175 38.242a2 2 0 1 1 4-.019 2 2 0 0 1-4 .02ZM.117 26.243a2 2 0 1 1 4-.02 2 2 0 0 1-4 .02ZM.058 14.243a2 2 0 1 1 4-.02 2 2 0 0 1-4 .02ZM0 2.243a2 2 0 1 1 4-.02 2 2 0 0 1-4 .02Z"/></svg>