<svg xmlns="http://www.w3.org/2000/svg" width="53" height="53" fill="none"><path fill="gray" fill-opacity=".3" d="M4 14.01a2 2 0 1 0-4-.02 2 2 0 0 0 4 .02ZM4.058 2.01a2 2 0 1 0-4-.02 2 2 0 0 0 4 .02ZM15.883 38.068a2 2 0 1 0-4-.02 2 2 0 0 0 4 .02ZM15.941 26.068a2 2 0 1 0-4-.02 2 2 0 0 0 4 .02ZM16 14.068a2 2 0 1 0-4-.02 2 2 0 0 0 4 .02ZM16.058 2.068a2 2 0 1 0-4-.02 2 2 0 0 0 4 .02ZM27.883 38.126a2 2 0 1 0-4-.02 2 2 0 0 0 4 .02ZM27.941 26.126a2 2 0 1 0-4-.02 2 2 0 0 0 4 .02ZM28 14.126a2 2 0 1 0-4-.02 2 2 0 0 0 4 .02ZM28.058 2.126a2 2 0 1 0-4-.02 2 2 0 0 0 4 .02ZM39.825 50.184a2 2 0 1 0-4-.02 2 2 0 0 0 4 .02ZM39.883 38.184a2 2 0 1 0-4-.02 2 2 0 0 0 4 .02ZM39.941 26.184a2 2 0 1 0-4-.02 2 2 0 0 0 4 .02ZM40 14.184a2 2 0 1 0-4-.02 2 2 0 0 0 4 .02ZM40.058 2.185a2 2 0 1 0-4-.02 2 2 0 0 0 4 .02ZM51.825 50.242a2 2 0 1 0-4-.02 2 2 0 0 0 4 .02ZM51.883 38.242a2 2 0 1 0-4-.02 2 2 0 0 0 4 .02ZM51.941 26.242a2 2 0 1 0-4-.019 2 2 0 0 0 4 .02ZM52 14.243a2 2 0 1 0-4-.02 2 2 0 0 0 4 .02ZM52.058 2.243a2 2 0 1 0-4-.02 2 2 0 0 0 4 .02Z"/></svg>