<svg xmlns="http://www.w3.org/2000/svg" width="43" height="43" fill="none"><path fill="gray" fill-opacity=".3" d="M38.816 11.315a1.615 1.615 0 1 1 3.23-.015 1.615 1.615 0 0 1-3.23.015ZM38.769 1.623a1.615 1.615 0 1 1 3.23-.015 1.615 1.615 0 0 1-3.23.015ZM29.218 30.747a1.615 1.615 0 1 1 3.23-.016 1.615 1.615 0 0 1-3.23.016ZM29.17 21.055a1.615 1.615 0 1 1 3.231-.016 1.615 1.615 0 0 1-3.23.016ZM29.124 11.363a1.615 1.615 0 1 1 3.23-.016 1.615 1.615 0 0 1-3.23.016ZM29.076 1.67a1.615 1.615 0 1 1 3.231-.015 1.615 1.615 0 0 1-3.23.015ZM19.526 30.794a1.615 1.615 0 1 1 3.23-.016 1.615 1.615 0 0 1-3.23.016ZM19.479 21.102a1.615 1.615 0 1 1 3.23-.016 1.615 1.615 0 0 1-3.23.016ZM19.431 11.41a1.615 1.615 0 1 1 3.231-.016 1.615 1.615 0 0 1-3.23.015ZM19.384 1.717a1.615 1.615 0 1 1 3.231-.015 1.615 1.615 0 0 1-3.23.015ZM9.88 40.533a1.615 1.615 0 1 1 3.231-.016 1.615 1.615 0 0 1-3.23.016ZM9.833 30.841a1.615 1.615 0 1 1 3.231-.016 1.615 1.615 0 0 1-3.23.016ZM9.786 21.149a1.615 1.615 0 1 1 3.231-.016 1.615 1.615 0 0 1-3.23.016ZM9.74 11.457a1.615 1.615 0 1 1 3.23-.016 1.615 1.615 0 0 1-3.23.016ZM9.692 1.764a1.615 1.615 0 1 1 3.23-.015 1.615 1.615 0 0 1-3.23.015ZM.188 40.58a1.615 1.615 0 1 1 3.231-.015 1.615 1.615 0 0 1-3.23.015ZM.141 30.888a1.615 1.615 0 1 1 3.231-.016 1.615 1.615 0 0 1-3.23.016ZM.094 21.196a1.615 1.615 0 1 1 3.23-.016 1.615 1.615 0 0 1-3.23.016ZM.047 11.504a1.615 1.615 0 1 1 3.23-.016 1.615 1.615 0 0 1-3.23.016ZM0 1.811a1.615 1.615 0 1 1 3.23-.015A1.615 1.615 0 0 1 0 1.81Z"/></svg>