<svg xmlns="http://www.w3.org/2000/svg" width="53" height="53" fill="none"><path fill="gray" fill-opacity=".3" d="M48.058 38.223a2 2 0 1 0 4 .02 2 2 0 0 0-4-.02ZM48 50.223a2 2 0 1 0 4 .02 2 2 0 0 0-4-.02ZM36.174 14.165a2 2 0 1 0 4 .02 2 2 0 0 0-4-.02ZM36.116 26.165a2 2 0 1 0 4 .02 2 2 0 0 0-4-.02ZM36.058 38.165a2 2 0 1 0 4 .02 2 2 0 0 0-4-.02ZM36 50.164a2 2 0 1 0 4 .02 2 2 0 0 0-4-.02ZM24.174 14.107a2 2 0 1 0 4 .02 2 2 0 0 0-4-.02ZM24.116 26.107a2 2 0 1 0 4 .02 2 2 0 0 0-4-.02ZM24.058 38.106a2 2 0 1 0 4 .02 2 2 0 0 0-4-.02ZM24 50.106a2 2 0 1 0 4 .02 2 2 0 0 0-4-.02ZM12.233 2.049a2 2 0 1 0 4 .019 2 2 0 0 0-4-.02ZM12.175 14.048a2 2 0 1 0 4 .02 2 2 0 0 0-4-.02ZM12.116 26.048a2 2 0 1 0 4 .02 2 2 0 0 0-4-.02ZM12.058 38.048a2 2 0 1 0 4 .02 2 2 0 0 0-4-.02ZM12 50.048a2 2 0 1 0 4 .02 2 2 0 0 0-4-.02ZM.233 1.99a2 2 0 1 0 4 .02 2 2 0 0 0-4-.02ZM.175 13.99a2 2 0 1 0 4 .02 2 2 0 0 0-4-.02ZM.117 25.99a2 2 0 1 0 4 .02 2 2 0 0 0-4-.02ZM.058 37.99a2 2 0 1 0 4 .02 2 2 0 0 0-4-.02ZM0 49.99a2 2 0 1 0 4 .02 2 2 0 0 0-4-.02Z"/></svg>